<svg width="30" height="30" viewBox="0 0 30 30" fill="none" xmlns="http://www.w3.org/2000/svg">
<circle cx="15" cy="15" r="14.5" stroke="#FF9D03"/>
<path d="M12.9889 16.6914V16.1914H12.4889H10.5V13.3711H12.4889H12.9889V12.8711V11.2266C12.9889 9.16043 13.4419 7.75429 14.2857 6.86151C15.1239 5.97469 16.4378 5.5 18.3792 5.5C18.9666 5.5 19.9043 5.59921 20.5 5.70902V8.24059C20.241 8.23104 19.9372 8.22656 19.6047 8.22656C18.5703 8.22656 17.7163 8.42551 17.1365 9.01515C16.5588 9.60258 16.3632 10.4667 16.3632 11.5195V12.8711V13.3711H16.8632H20.2072L19.7061 16.1914H16.8632H16.3632V16.6914V24.5H12.9889V16.6914Z" stroke="#FF9D03"/>
</svg>
