<svg width="30" height="30" viewBox="0 0 30 30" fill="none" xmlns="http://www.w3.org/2000/svg">
<circle cx="15" cy="15" r="14.5" stroke="#FF9D03"/>
<path d="M15.002 10.6286C12.4481 10.6286 10.3881 12.8036 10.3881 15.5C10.3881 18.1964 12.4481 20.3714 15.002 20.3714C17.5559 20.3714 19.616 18.1964 19.616 15.5C19.616 12.8036 17.5559 10.6286 15.002 10.6286ZM15.002 18.667C13.3516 18.667 12.0023 17.2467 12.0023 15.5C12.0023 13.7533 13.3476 12.333 15.002 12.333C16.6564 12.333 18.0017 13.7533 18.0017 15.5C18.0017 17.2467 16.6524 18.667 15.002 18.667ZM20.8809 10.4294C20.8809 11.0611 20.399 11.5656 19.8047 11.5656C19.2064 11.5656 18.7285 11.0568 18.7285 10.4294C18.7285 9.80191 19.2104 9.29315 19.8047 9.29315C20.399 9.29315 20.8809 9.80191 20.8809 10.4294ZM23.9368 11.5826C23.8685 10.0605 23.5392 8.71232 22.4831 7.60153C21.431 6.49074 20.154 6.14309 18.7124 6.06677C17.2267 5.97774 12.7733 5.97774 11.2876 6.06677C9.84997 6.13885 8.57301 6.4865 7.5169 7.59729C6.46079 8.70808 6.13553 10.0563 6.06325 11.5783C5.97892 13.147 5.97892 17.8488 6.06325 19.4174C6.13151 20.9395 6.46079 22.2877 7.5169 23.3985C8.57301 24.5093 9.84596 24.8569 11.2876 24.9332C12.7733 25.0223 17.2267 25.0223 18.7124 24.9332C20.154 24.8612 21.431 24.5135 22.4831 23.3985C23.5352 22.2877 23.8645 20.9395 23.9368 19.4174C24.0211 17.8488 24.0211 13.1512 23.9368 11.5826ZM22.0173 21.1006C21.7041 21.9316 21.0977 22.5717 20.3066 22.9067C19.122 23.4027 16.3111 23.2882 15.002 23.2882C13.6929 23.2882 10.878 23.3985 9.69738 22.9067C8.91032 22.576 8.30396 21.9358 7.98673 21.1006C7.5169 19.8499 7.62532 16.8821 7.62532 15.5C7.62532 14.1179 7.52091 11.1459 7.98673 9.89942C8.29994 9.06845 8.9063 8.42826 9.69738 8.09333C10.882 7.59729 13.6929 7.71176 15.002 7.71176C16.3111 7.71176 19.126 7.60153 20.3066 8.09333C21.0937 8.42402 21.7001 9.06421 22.0173 9.89942C22.4871 11.1501 22.3787 14.1179 22.3787 15.5C22.3787 16.8821 22.4871 19.8541 22.0173 21.1006Z" fill="#FF9D03"/>
</svg>
