<svg width="30" height="30" viewBox="0 0 30 30" fill="none" xmlns="http://www.w3.org/2000/svg">
<circle cx="15" cy="15" r="14.5" stroke="#FF9D03"/>
<path d="M22.5 16.4989V21.5H20.3929V17.125V17.1212C20.3929 16.5625 20.3929 15.8005 20.1468 15.1793C20.0177 14.8535 19.8127 14.5414 19.4867 14.3141C19.1598 14.086 18.7539 13.9732 18.2757 13.9732C17.8064 13.9732 17.4002 14.065 17.0599 14.2534C16.7167 14.4434 16.4705 14.7151 16.2989 15.0261C15.9688 15.6246 15.9107 16.3792 15.9107 17.0413V21.5H13.8036V12.4855H15.7868V13.3516V13.8516H16.2868H16.3304H16.6319L16.7726 13.5849C17.1053 12.9543 17.9542 12.2344 19.2734 12.2344C20.7238 12.2344 21.4703 12.7011 21.8939 13.3736C22.3508 14.0991 22.5 15.1638 22.5 16.4989ZM10.8583 21.5H8.74777V12.4855H10.8583V21.5ZM9.80134 10.1194C9.08906 10.1194 8.5 9.52565 8.5 8.80134C8.5 8.4562 8.6371 8.1252 8.88115 7.88115C9.1252 7.6371 9.4562 7.5 9.80134 7.5C10.1465 7.5 10.4775 7.6371 10.7215 7.88115C10.9656 8.1252 11.1027 8.4562 11.1027 8.80134C11.1027 9.52565 10.5136 10.1194 9.80134 10.1194Z" stroke="#FF9D03"/>
</svg>
