<svg width="41" height="33" viewBox="0 0 41 33" fill="none" xmlns="http://www.w3.org/2000/svg">
<g clip-path="url(#clip0_4_25)">
<path d="M32.8413 29.0675C31.1136 28.3838 29.3285 27.8265 27.4743 27.647C21.9708 27.0897 16.593 29.0411 11.7248 31.4067C10.8888 31.835 9.42593 32.5717 8.57334 33L8.60498 30.9205C8.63579 28.6078 8.66659 26.2952 8.73071 23.9833L8.76151 22.9473C8.76235 22.9894 8.77234 23.0341 8.78899 23.0754C8.84061 23.2301 9.01296 23.3458 9.16866 23.3417C8.82562 23.3342 8.48342 23.3152 8.14205 23.283C4.95983 23.0027 1.80093 21.4474 0.620294 18.3137C-0.104906 16.469 -0.194827 14.3978 0.358023 12.4993C1.07656 9.78647 3.53774 8.10302 6.26036 7.85332C7.69078 7.7111 9.14285 7.93683 10.4875 8.42466C11.2393 8.69587 11.9529 9.0448 12.6165 9.46152C11.1378 9.0696 9.6091 8.83064 8.09876 8.93069C6.08968 9.04893 3.8916 9.88735 2.8625 11.6849C2.62271 12.0917 2.46535 12.5465 2.37293 13.0062C2.26469 13.4973 2.20891 14.0042 2.2114 14.5061C2.21307 15.8001 2.56776 17.1404 3.30045 18.2045C3.83748 18.976 4.58183 19.5192 5.4569 19.9144C6.34945 20.3146 7.38938 20.5279 8.38684 20.6131C8.7332 20.6487 9.08206 20.642 9.42843 20.6669C10.0212 20.728 10.5833 21.0365 10.9538 21.4937C11.3118 21.9278 11.4925 22.4991 11.4608 23.0589C11.4575 23.1589 11.4492 23.3913 11.4458 23.4922C11.4167 24.4488 11.3717 25.4253 11.3309 26.3803C11.2693 27.9207 11.1827 29.4603 11.1078 31.0007L9.29521 29.8489C9.76064 29.6364 10.2261 29.4239 10.694 29.2164C14.9303 27.3874 19.5254 26.0397 24.1855 26.2398C27.3328 26.3621 30.2361 27.3246 32.8413 29.0684V29.0675Z" fill="#FF9D04"/>
<path d="M10.2494 5.92182C11.6781 2.34739 15.9094 -0.544065 19.8535 0.0868134C23.3871 0.664774 25.3187 3.83074 26.0581 7.05625C26.1655 7.53085 26.2687 8.04184 26.3395 8.52141C26.3478 8.57184 26.3661 8.69339 26.3736 8.74135C26.3728 8.73308 26.3803 8.78599 26.3719 8.72729C26.2529 8.10137 25.6892 7.69622 25.0198 7.84009C24.8691 7.87564 24.7167 7.94841 24.5952 8.04349C24.4478 8.16421 24.3987 8.24111 24.4353 8.1948C24.556 8.05672 24.6884 7.91037 24.815 7.7789C28.2778 4.24086 35.1559 2.55741 38.9035 6.53451C41.1482 9.00428 41.7652 13.308 39.896 16.1432C37.9235 19.1587 33.9945 19.4588 30.7889 18.6527C29.2769 18.3145 27.8715 17.6944 26.4402 17.1362C23.6643 16.0721 20.7877 15.2056 17.8194 14.8947C16.3416 14.7649 14.8029 14.702 13.3691 15.1427C14.0569 14.8186 14.8146 14.6764 15.5639 14.5656C16.3191 14.4647 17.0834 14.4242 17.8452 14.4325C21.2856 14.4796 24.6684 15.3114 27.9131 16.3962C28.9455 16.746 30.0138 17.0503 31.0862 17.2363C33.0703 17.5745 35.3116 17.5985 37.0185 16.4591C39.2848 14.9517 39.3473 11.8478 38.3373 9.56488C36.2775 4.76673 29.4526 6.27736 26.4893 9.3714C26.4102 9.45656 26.3212 9.54999 26.2454 9.63929C26.1755 9.7104 26.2454 9.6641 26.0214 9.86089C25.6692 10.1569 25.0756 10.1767 24.7325 9.98078C24.3612 9.80053 24.1006 9.4053 24.0665 8.98774C24.0024 8.5181 23.9149 8.02778 23.8134 7.56393C23.3396 5.47202 22.4004 3.1916 20.3589 2.21758C16.9152 0.620125 12.3775 3.10395 10.2494 5.91934V5.92182Z" fill="#FF9D04"/>
</g>
<defs>
<clipPath id="clip0_4_25">
<rect width="41" height="33" fill="white"/>
</clipPath>
</defs>
</svg>
