<svg width="523" height="826" viewBox="0 0 523 826" fill="none" xmlns="http://www.w3.org/2000/svg">
<path d="M337.66 715.338C335.647 716.388 333.63 717.572 331.746 718.627C331.612 719.546 332.285 720.992 332.418 722.438C332.552 723.885 332.013 726.647 332.285 727.832C333.358 732.567 338.738 730.99 342.1 729.413C345.462 727.832 348.285 725.466 346.401 721.258C344.923 718.23 340.755 716.653 337.66 715.338Z" fill="#FF9D03"/>
<path d="M475.477 430.315C472.654 429.919 469.02 427.422 465.796 430.184C465.93 432.158 467.947 433.996 468.081 435.839C468.214 438.601 465.796 439.786 464.046 442.02C462.839 443.597 460.283 447.148 462.3 449.121C464.184 450.964 468.486 448.463 470.365 447.941C471.309 450.045 469.831 453.334 472.249 454.514C474.938 455.83 476.822 452.807 478.167 450.964C480.99 447.017 478.434 441.89 474.938 438.601C475.206 435.969 475.477 433.077 475.477 430.315Z" fill="#FF9D03"/>
<path d="M506.133 420.317C505.728 416.505 504.383 412.951 501.293 410.454C499.409 408.873 496.719 407.954 494.836 408.612C494.836 410.846 494.836 412.951 494.836 415.19C494.836 415.059 494.836 414.924 494.974 414.924C495.374 418.479 496.719 421.763 499.409 424.133C503.577 427.684 506.806 425.052 506.133 420.317Z" fill="#FF9D03"/>
<mask id="mask0_36_14" style="mask-type:luminance" maskUnits="userSpaceOnUse" x="515" y="424" width="8" height="9">
<path d="M515.517 424.289H523V432.925H515.517V424.289Z" fill="white"/>
</mask>
<g mask="url(#mask0_36_14)">
<path d="M519.578 424.525C518.366 425.841 517.155 427.157 516.082 428.603C517.155 430.576 518.5 434.654 521.457 430.576C523.207 428.08 521.595 425.71 519.578 424.525Z" fill="#FF9D03"/>
</g>
<path d="M502.366 459.119C502.099 462.408 505.461 463.066 508.685 462.278C512.987 461.093 518.771 453.595 516.754 448.86C513.125 450.306 502.771 453.334 502.366 459.119Z" fill="#FF9D03"/>
<g filter="url(#filter0_d_36_14)">
<path d="M392.519 555.926C391.308 551.452 391.441 547.374 390.907 542.905C390.368 539.219 387.545 537.381 386.738 534.222C385.794 530.541 387.945 526.329 387.678 522.648C387.545 521.332 386.738 520.413 386.872 519.097C387.006 517.385 388.889 515.678 389.023 513.704C389.157 510.677 387.678 509.23 386.333 506.734C384.855 503.972 384.45 501.075 383.243 498.313C382.165 495.817 380.687 493.186 379.208 490.424C379.208 486.081 379.342 481.48 378.669 477.272C377.458 469.64 371.678 465.959 368.721 459.381C366.031 453.595 366.837 447.148 362.669 441.759C360.79 439.389 358.501 438.074 356.484 435.97C353.126 432.68 350.837 428.08 347.613 424.66C342.5 419.132 337.526 412.951 333.091 407.035C329.996 403.088 326.233 397.302 322.332 394.144C317.496 390.067 311.172 388.093 306.064 384.674C302.301 382.173 299.612 378.095 296.116 375.334C293.831 373.495 290.87 372.18 288.586 370.468C283.072 365.998 279.176 359.816 274.064 354.95C269.223 350.215 264.115 345.61 259.813 340.478C251.882 331.012 242.602 322.722 233.593 314.305C230.097 311.016 227.274 309.178 227.412 304.573C227.412 301.023 228.351 297.865 226.601 294.445C224.722 290.894 221.226 288.79 217.998 286.29C214.907 283.789 212.351 280.635 209.123 278.4C205.765 276.031 202.67 275.373 199.847 272.084C197.562 269.453 195.14 266.429 193.661 263.271C192.454 260.775 192.049 257.616 190.704 255.251C189.092 252.489 186.67 249.988 184.924 247.226C184.118 245.911 182.773 243.676 181.562 241.572C181.829 241.176 182.101 240.783 182.234 240.387C185.463 240.126 187.881 236.837 189.092 233.678C190.299 230.52 193.26 227.366 193.26 224.208C193.26 222.234 192.183 220.261 192.316 218.157C192.454 216.053 192.454 214.079 192.855 211.975C193.795 206.978 196.756 201.981 198.368 196.98C200.252 191.457 203.075 188.825 208.588 186.987C215.174 184.752 220.149 179.359 224.451 173.966C228.218 169.23 229.964 165.022 231.175 159.233C232.52 153.182 235.61 153.578 239.778 149.37C242.067 147 241.796 146.739 240.317 143.58C240.05 142.923 238.839 141.607 238.839 140.949C238.839 140.161 240.451 138.322 240.317 137.795C239.378 135.295 236.015 136.349 234.938 132.929C234.537 131.875 234.537 130.69 234.671 129.509C235.744 129.374 236.822 129.244 237.899 129.509C240.856 130.032 242.067 131.875 243.947 133.979C249.999 140.818 248.787 131.875 255.378 130.825C259.141 130.167 260.081 134.506 263.982 132.006C266.671 130.298 268.417 126.351 268.956 123.72C269.628 120.696 268.417 118.592 271.24 116.75C273.258 115.303 276.62 115.565 278.904 114.384C281.594 112.933 283.879 110.306 286.167 108.198C287.646 106.752 292.486 103.467 291.142 100.967C289.797 98.3353 283.072 99.6509 280.922 99.1238C275.409 97.8082 274.335 91.7573 269.361 88.8647C265.193 86.3684 256.451 84.1293 254.3 79.394C251.744 74.0008 258.335 68.2156 255.645 63.0838C255.106 62.0339 253.227 61.9032 252.555 60.849C251.882 59.9298 252.555 59.0105 252.016 58.0871C250.805 55.9829 249.593 53.6174 247.442 52.4325C249.326 48.0935 250.537 46.3816 254.568 43.0925C261.292 37.438 258.063 35.4646 251.744 33.7568C249.865 33.2297 248.52 32.5719 246.503 32.4412C243.813 32.4412 240.585 34.5453 237.899 34.0182C235.61 33.4911 235.209 31.6485 233.459 30.5985C230.636 29.0215 229.696 29.1522 226.334 29.2829C221.761 29.5443 214.368 30.2021 210.467 27.7059C206.704 25.4668 206.299 21.5242 201.325 20.9971C194.467 20.3393 191.51 19.8122 187.614 13.7613C185.596 10.7379 182.773 5.87186 178.471 6.00258C175.781 12.9728 172.419 12.315 165.695 13.3691C159.647 14.4191 155.88 18.6273 153.328 23.759C150.367 29.9407 148.216 33.6219 141.225 34.0182C138.806 34.149 136.518 34.149 134.367 35.5953C131.543 37.5687 133.022 39.015 131.41 41.1191C128.186 45.3274 124.957 39.015 120.789 37.9651C115.815 36.7802 111.646 39.9385 108.418 43.6196C105.728 46.643 103.444 54.4059 98.4694 53.0903C94.84 52.0361 93.4952 46.9086 89.8658 45.593C86.6373 47.9586 85.6976 55.3251 80.4518 50.9862C76.6888 47.9586 77.4949 40.727 71.9818 40.0692C64.5894 39.2807 64.0506 46.3816 62.8394 50.8555C61.6281 55.3251 56.6539 58.6142 51.8133 57.9564C47.1063 57.2986 46.4382 52.0361 44.9554 48.4857C43.3433 44.6738 41.0587 42.304 37.1578 40.8577C31.3775 38.4879 16.8556 36.7802 17.1272 44.9352C17.2608 50.5898 17.5281 48.8821 12.959 52.5632C9.05806 55.7215 10.4029 56.1137 12.1486 59.4027C14.5711 64.0073 13.8987 72.0317 17.5281 75.5821C19.4117 77.4206 22.6359 77.2899 24.7912 78.8711C27.3429 80.5789 28.5542 83.8679 30.0326 86.2334C31.5111 88.6032 33.662 100.178 37.563 96.6276C40.1148 94.2578 36.7569 83.6064 44.4209 88.8647C47.2442 90.8381 47.3778 94.7849 48.1839 97.8082C48.9899 100.967 49.796 104.256 48.8563 107.545C44.0157 105.044 46.3002 111.095 46.4382 113.199C46.7054 118.065 44.0157 116.353 41.7312 120.039C43.7484 122.273 45.6278 123.589 47.5115 126.09C50.3348 129.771 50.4684 130.559 50.602 135.033C50.74 140.03 55.309 145.027 60.5548 145.684C66.2015 146.477 69.6973 142.003 73.9991 147.266C76.0164 149.762 76.15 152.393 79.107 151.866C81.663 151.474 83.0079 148.581 84.4864 146.869C87.4433 143.45 90.6719 140.688 94.84 138.584C95.1073 138.453 98.0643 137.137 100.888 135.822C102.504 136.349 103.982 136.872 104.922 137.137C110.168 140.291 115.948 142.792 121.194 146.477C123.479 148.054 128.586 153.97 127.647 157.129C126.703 160.287 117.427 160.548 118.772 163.968C119.711 166.072 122.94 164.757 124.69 165.153C126.974 165.68 128.858 167.126 131.143 167.518C129.931 172.254 130.065 177.516 135.444 178.043C140.013 178.435 145.798 178.174 146.337 184.486C146.871 190.537 137.595 192.38 138 196.85C138.268 199.742 141.358 199.742 138.807 203.558C137.328 205.663 134.367 206.978 132.487 208.952C130.47 210.925 129.393 213.687 126.03 212.898C123.207 212.241 120.922 209.082 117.832 208.163C112.858 206.848 114.603 208.821 110.974 210.794C108.418 212.241 106.672 210.398 103.849 210.137C91.8831 209.082 106.267 220.919 103.444 224.473C102.504 225.789 97.1246 223.946 96.7237 227.1C96.1849 231.178 106.401 233.417 108.823 234.336C114.871 236.706 123.073 238.152 128.586 241.437C133.16 244.203 134.367 250.119 138.807 252.75C143.781 255.643 151.311 254.197 156.824 255.774C160.048 256.697 161.393 257.747 163.678 259.459C162.738 261.694 161.66 263.798 160.454 265.902C160.454 265.771 160.454 265.641 160.32 265.771C158.837 269.191 155.341 269.588 159.109 273.138C161.393 275.242 164.488 277.346 166.906 279.45C169.997 282.212 174.165 281.555 177.394 283.924C181.428 286.817 182.368 292.079 184.385 296.157C186.67 300.757 188.687 305.362 191.644 309.701C195.14 314.833 200.786 318.252 205.493 322.199C209.661 325.75 212.351 330.616 216.653 334.297C221.093 338.113 224.989 337.982 228.084 343.637C229.425 346.002 230.097 349.557 231.847 351.661C233.731 353.765 235.343 353.369 236.688 356.919C239.378 363.894 240.856 373.099 246.503 378.492C248.386 377.965 248.921 374.676 250.671 374.414C252.688 374.153 253.762 376.915 254.839 378.361C256.318 380.465 258.201 383.489 260.619 384.804C262.637 385.989 264.654 385.462 266.805 386.385C271.24 388.355 271.24 395.194 276.215 396.645C280.249 397.825 285.629 395.852 284.689 403.088C284.016 408.35 277.025 408.35 274.202 412.162C271.378 416.24 281.866 424.003 285.09 427.684C288.719 431.761 298.806 439.786 298.939 445.837C299.073 452.018 292.215 455.172 292.215 460.435C292.215 463.724 294.771 466.486 293.965 470.036C293.159 473.983 289.93 476.614 289.663 480.953C289.663 482.138 289.797 487.531 290.603 491.739C288.857 493.447 287.241 494.893 287.107 495.159C286.702 502.787 291.275 508.442 293.021 515.808C294.099 520.147 293.693 524.752 295.849 528.829C298.133 533.303 300.418 535.93 300.956 541.193C301.896 550.006 299.612 558.688 299.745 567.104C299.745 569.339 301.09 571.312 300.15 573.547C299.478 575.129 297.327 575.521 296.655 576.967C294.905 580.652 298.672 586.834 299.344 590.385C300.15 594.331 299.206 600.382 297.461 604.063C294.905 609.853 292.081 606.564 288.047 606.298C283.344 606.037 278.37 609.457 275.68 612.746C271.913 617.35 269.223 616.954 264.115 618.927C261.831 619.846 260.619 621.293 258.736 622.608C256.585 624.19 254.568 624.713 252.149 625.897C251.21 626.424 250.805 627.74 249.46 628.002C247.309 628.398 247.981 627.082 245.964 626.817C243.141 626.424 241.662 626.952 239.778 630.106C237.494 634.183 241.529 639.707 235.744 641.153C229.425 642.735 222.166 636.157 215.713 638.788C213.963 639.576 210.739 642.735 210.067 644.442C208.722 647.731 211.006 649.574 211.946 652.597C212.756 655.098 212.084 658.387 213.562 660.622C215.847 663.911 220.149 662.595 223.106 664.172C230.235 667.988 219.61 669.962 223.244 674.035C225.662 676.666 229.024 674.959 227.274 679.825C226.334 682.587 224.451 682.848 224.722 686.268C224.722 686.664 224.856 687.583 224.989 688.637C222.032 687.98 217.459 687.06 215.981 686.795C213.157 685.087 210.873 687.849 207.916 685.61C205.226 683.641 205.226 679.955 201.997 678.77C195.95 676.405 185.864 683.506 179.812 684.294C176.454 684.821 173.359 682.848 169.863 683.506C164.484 684.429 166.234 688.507 165.156 692.846C163.005 701.528 154.807 705.47 146.47 706.525C143.108 706.921 135.311 708.367 135.444 712.314C135.444 714.283 138.134 717.045 138.94 719.019C139.613 721.123 140.151 723.227 140.686 725.335C144.587 725.727 146.738 721.388 150.233 722.573C153.19 723.623 155.88 727.57 158.57 729.016C162.199 730.99 168.924 728.755 169.997 734.279C171.208 740.983 164.217 739.933 161.527 743.222C160.048 745.061 161.126 748.481 160.854 750.72C160.453 754.797 160.048 758.875 159.647 763.083C158.837 771.896 156.958 780.182 156.958 789.125C156.958 791.491 156.285 794.388 157.359 796.753C158.303 798.857 161.66 799.384 162.333 801.092C163.816 804.778 157.897 804.381 156.824 807.67C154.669 814.64 166.773 810.563 170.268 809.905C178.605 808.328 180.083 804.12 183.445 797.28C186.67 790.441 194.739 785.179 200.924 780.84C208.722 775.577 218.537 772.554 225.929 767.03C233.998 761.11 224.183 755.455 219.476 750.72C216.787 748.089 204.282 736.514 213.291 737.041C217.459 737.302 221.226 741.641 224.317 744.011C227.813 746.511 231.175 749.008 234.671 751.508C238.166 754.009 247.848 760.19 246.904 751.112C246.369 746.246 239.778 741.907 236.149 739.014C233.593 737.041 227.813 733.094 228.084 729.413C228.619 721.519 244.485 737.172 247.981 738.618C251.744 740.33 252.955 740.983 252.555 736.383C252.417 735.46 250.938 734.144 251.343 733.094C251.882 731.648 255.24 730.724 256.585 729.936C264.788 724.939 257.257 720.992 252.688 716.126C254.839 714.68 259.68 716.653 260.619 713.626C261.025 712.049 258.201 708.367 255.378 705.47C256.723 703.893 258.201 702.186 259.007 701.397C262.503 697.842 266.939 694.161 271.24 699.289C273.124 701.659 272.318 704.817 275.275 705.47C278.232 706.128 280.249 703.105 283.611 704.682C286.167 705.867 287.374 708.237 290.336 706.921C293.293 705.605 295.711 702.316 299.073 700.739C306.737 697.32 314 692.976 321.797 689.953C330.401 686.533 336.72 683.506 343.578 677.459C347.074 674.431 351.242 671.8 355.277 669.304C357.294 667.988 358.634 667.723 360.384 665.884C361.863 664.303 362.941 661.807 364.419 660.356C367.242 657.729 371.544 657.202 375.04 656.148C378.536 655.098 379.342 654.044 381.092 650.363C384.855 642.469 393.73 635.499 392.519 626.686C391.441 619.189 390.368 612.088 390.096 604.46C389.963 601.563 389.29 600.382 391.713 598.936C393.325 598.012 395.075 599.724 396.42 597.751C398.571 594.462 390.635 587.226 390.501 583.414C390.368 578.152 394.264 577.233 397.088 573.813C400.722 577.363 398.838 569.47 398.433 568.023C395.747 563.815 393.592 560.134 392.519 555.926Z" fill="#FF9D03"/>
</g>
<defs>
<filter id="filter0_d_36_14" x="0.431641" y="0" width="408.85" height="825.687" filterUnits="userSpaceOnUse" color-interpolation-filters="sRGB">
<feFlood flood-opacity="0" result="BackgroundImageFix"/>
<feColorMatrix in="SourceAlpha" type="matrix" values="0 0 0 0 0 0 0 0 0 0 0 0 0 0 0 0 0 0 127 0" result="hardAlpha"/>
<feOffset dy="4"/>
<feGaussianBlur stdDeviation="5"/>
<feComposite in2="hardAlpha" operator="out"/>
<feColorMatrix type="matrix" values="0 0 0 0 0 0 0 0 0 0 0 0 0 0 0 0 0 0 0.25 0"/>
<feBlend mode="normal" in2="BackgroundImageFix" result="effect1_dropShadow_36_14"/>
<feBlend mode="normal" in="SourceGraphic" in2="effect1_dropShadow_36_14" result="shape"/>
</filter>
</defs>
</svg>
